<svg width="26" height="26" viewBox="0 0 26 26" fill="none" xmlns="http://www.w3.org/2000/svg">
<path d="M5.41659 9.75001V22.75H1.08325V9.75001H5.41659ZM9.74992 22.75C9.17528 22.75 8.62418 22.5217 8.21785 22.1154C7.81153 21.7091 7.58325 21.158 7.58325 20.5833V9.75001C7.58325 9.15418 7.82159 8.61251 8.22242 8.22251L15.3508 1.08334L16.4991 2.23168C16.7916 2.52418 16.9758 2.92501 16.9758 3.36918L16.9433 3.71584L15.9141 8.66668H22.7499C23.3246 8.66668 23.8757 8.89495 24.282 9.30128C24.6883 9.70761 24.9166 10.2587 24.9166 10.8333V13C24.9166 13.2817 24.8624 13.5417 24.7649 13.7908L21.4933 21.4283C21.1683 22.2083 20.3991 22.75 19.4999 22.75H9.74992ZM9.74992 20.5833H19.5324L22.7499 13V10.8333H13.2274L14.4516 5.07001L9.74992 9.78251V20.5833Z" fill="#363636"/>
</svg>
