<svg width="39" height="39" viewBox="0 0 39 39" fill="none" xmlns="http://www.w3.org/2000/svg">
<path d="M6.5 35.75H26C26.862 35.75 27.6886 35.4076 28.2981 34.7981C28.9076 34.1886 29.25 33.362 29.25 32.5V13C29.25 12.138 28.9076 11.3114 28.2981 10.7019C27.6886 10.0924 26.862 9.75 26 9.75H6.5C5.63805 9.75 4.8114 10.0924 4.2019 10.7019C3.59241 11.3114 3.25 12.138 3.25 13V32.5C3.25 33.362 3.59241 34.1886 4.2019 34.7981C4.8114 35.4076 5.63805 35.75 6.5 35.75ZM9.75 21.125H14.625V16.25H17.875V21.125H22.75V24.375H17.875V29.25H14.625V24.375H9.75V21.125Z" fill="#E9E9E9"/>
<path d="M32.5 3.25H13V6.5H32.5V26H35.75V6.5C35.75 4.70762 34.2924 3.25 32.5 3.25Z" fill="#E9E9E9"/>
</svg>
