<svg width="39" height="39" viewBox="0 0 39 39" fill="none" xmlns="http://www.w3.org/2000/svg">
<g clip-path="url(#clip0_34_20)">
<path d="M7.3125 0C6.66603 0 6.04605 0.256807 5.58893 0.713927C5.13181 1.17105 4.875 1.79103 4.875 2.4375V36.5625C4.875 37.209 5.13181 37.829 5.58893 38.2861C6.04605 38.7432 6.66603 39 7.3125 39H14.625V30.4688C14.625 30.1455 14.7534 29.8355 14.982 29.607C15.2105 29.3784 15.5205 29.25 15.8438 29.25H23.1562C23.4795 29.25 23.7895 29.3784 24.018 29.607C24.2466 29.8355 24.375 30.1455 24.375 30.4688V39H31.6875C32.334 39 32.954 38.7432 33.4111 38.2861C33.8682 37.829 34.125 37.209 34.125 36.5625V2.4375C34.125 1.79103 33.8682 1.17105 33.4111 0.713927C32.954 0.256807 32.334 0 31.6875 0L7.3125 0ZM9.75 6.09375C9.75 5.77052 9.8784 5.46052 10.107 5.23196C10.3355 5.0034 10.6455 4.875 10.9688 4.875H13.4062C13.7295 4.875 14.0395 5.0034 14.268 5.23196C14.4966 5.46052 14.625 5.77052 14.625 6.09375V8.53125C14.625 8.85448 14.4966 9.16448 14.268 9.39304C14.0395 9.6216 13.7295 9.75 13.4062 9.75H10.9688C10.6455 9.75 10.3355 9.6216 10.107 9.39304C9.8784 9.16448 9.75 8.85448 9.75 8.53125V6.09375ZM17.0625 6.09375C17.0625 5.77052 17.1909 5.46052 17.4195 5.23196C17.648 5.0034 17.958 4.875 18.2812 4.875H20.7188C21.042 4.875 21.352 5.0034 21.5805 5.23196C21.8091 5.46052 21.9375 5.77052 21.9375 6.09375V8.53125C21.9375 8.85448 21.8091 9.16448 21.5805 9.39304C21.352 9.6216 21.042 9.75 20.7188 9.75H18.2812C17.958 9.75 17.648 9.6216 17.4195 9.39304C17.1909 9.16448 17.0625 8.85448 17.0625 8.53125V6.09375ZM25.5938 4.875H28.0312C28.3545 4.875 28.6645 5.0034 28.893 5.23196C29.1216 5.46052 29.25 5.77052 29.25 6.09375V8.53125C29.25 8.85448 29.1216 9.16448 28.893 9.39304C28.6645 9.6216 28.3545 9.75 28.0312 9.75H25.5938C25.2705 9.75 24.9605 9.6216 24.732 9.39304C24.5034 9.16448 24.375 8.85448 24.375 8.53125V6.09375C24.375 5.77052 24.5034 5.46052 24.732 5.23196C24.9605 5.0034 25.2705 4.875 25.5938 4.875ZM9.75 13.4062C9.75 13.083 9.8784 12.773 10.107 12.5445C10.3355 12.3159 10.6455 12.1875 10.9688 12.1875H13.4062C13.7295 12.1875 14.0395 12.3159 14.268 12.5445C14.4966 12.773 14.625 13.083 14.625 13.4062V15.8438C14.625 16.167 14.4966 16.477 14.268 16.7055C14.0395 16.9341 13.7295 17.0625 13.4062 17.0625H10.9688C10.6455 17.0625 10.3355 16.9341 10.107 16.7055C9.8784 16.477 9.75 16.167 9.75 15.8438V13.4062ZM18.2812 12.1875H20.7188C21.042 12.1875 21.352 12.3159 21.5805 12.5445C21.8091 12.773 21.9375 13.083 21.9375 13.4062V15.8438C21.9375 16.167 21.8091 16.477 21.5805 16.7055C21.352 16.9341 21.042 17.0625 20.7188 17.0625H18.2812C17.958 17.0625 17.648 16.9341 17.4195 16.7055C17.1909 16.477 17.0625 16.167 17.0625 15.8438V13.4062C17.0625 13.083 17.1909 12.773 17.4195 12.5445C17.648 12.3159 17.958 12.1875 18.2812 12.1875ZM24.375 13.4062C24.375 13.083 24.5034 12.773 24.732 12.5445C24.9605 12.3159 25.2705 12.1875 25.5938 12.1875H28.0312C28.3545 12.1875 28.6645 12.3159 28.893 12.5445C29.1216 12.773 29.25 13.083 29.25 13.4062V15.8438C29.25 16.167 29.1216 16.477 28.893 16.7055C28.6645 16.9341 28.3545 17.0625 28.0312 17.0625H25.5938C25.2705 17.0625 24.9605 16.9341 24.732 16.7055C24.5034 16.477 24.375 16.167 24.375 15.8438V13.4062ZM10.9688 19.5H13.4062C13.7295 19.5 14.0395 19.6284 14.268 19.857C14.4966 20.0855 14.625 20.3955 14.625 20.7188V23.1562C14.625 23.4795 14.4966 23.7895 14.268 24.018C14.0395 24.2466 13.7295 24.375 13.4062 24.375H10.9688C10.6455 24.375 10.3355 24.2466 10.107 24.018C9.8784 23.7895 9.75 23.4795 9.75 23.1562V20.7188C9.75 20.3955 9.8784 20.0855 10.107 19.857C10.3355 19.6284 10.6455 19.5 10.9688 19.5ZM17.0625 20.7188C17.0625 20.3955 17.1909 20.0855 17.4195 19.857C17.648 19.6284 17.958 19.5 18.2812 19.5H20.7188C21.042 19.5 21.352 19.6284 21.5805 19.857C21.8091 20.0855 21.9375 20.3955 21.9375 20.7188V23.1562C21.9375 23.4795 21.8091 23.7895 21.5805 24.018C21.352 24.2466 21.042 24.375 20.7188 24.375H18.2812C17.958 24.375 17.648 24.2466 17.4195 24.018C17.1909 23.7895 17.0625 23.4795 17.0625 23.1562V20.7188ZM25.5938 19.5H28.0312C28.3545 19.5 28.6645 19.6284 28.893 19.857C29.1216 20.0855 29.25 20.3955 29.25 20.7188V23.1562C29.25 23.4795 29.1216 23.7895 28.893 24.018C28.6645 24.2466 28.3545 24.375 28.0312 24.375H25.5938C25.2705 24.375 24.9605 24.2466 24.732 24.018C24.5034 23.7895 24.375 23.4795 24.375 23.1562V20.7188C24.375 20.3955 24.5034 20.0855 24.732 19.857C24.9605 19.6284 25.2705 19.5 25.5938 19.5Z" fill="#E9E9E9"/>
</g>
<defs>
<clipPath id="clip0_34_20">
<rect width="39" height="39" fill="white"/>
</clipPath>
</defs>
</svg>
