<svg width="26" height="26" viewBox="0 0 26 26" fill="none" xmlns="http://www.w3.org/2000/svg">
<path d="M20.5834 5.41667C20.5834 4.225 19.6084 3.25 18.4167 3.25H15.1667V5.41667H18.4167V8.2875L14.6251 13H10.8334V7.58333H6.50008C4.10591 7.58333 2.16675 9.5225 2.16675 11.9167V15.1667H4.33341C4.33341 16.965 5.78508 18.4167 7.58341 18.4167C9.38175 18.4167 10.8334 16.965 10.8334 15.1667H15.7084L20.5834 9.04583V5.41667ZM4.33341 13V11.9167C4.33341 10.725 5.30841 9.75 6.50008 9.75H8.66675V13H4.33341ZM7.58341 16.25C6.98758 16.25 6.50008 15.7625 6.50008 15.1667H8.66675C8.66675 15.7625 8.17925 16.25 7.58341 16.25ZM5.41675 4.33333H10.8334V6.5H5.41675V4.33333ZM20.5834 11.9167C18.7851 11.9167 17.3334 13.3683 17.3334 15.1667C17.3334 16.965 18.7851 18.4167 20.5834 18.4167C22.3817 18.4167 23.8334 16.965 23.8334 15.1667C23.8334 13.3683 22.3817 11.9167 20.5834 11.9167ZM20.5834 16.25C19.9876 16.25 19.5001 15.7625 19.5001 15.1667C19.5001 14.5708 19.9876 14.0833 20.5834 14.0833C21.1792 14.0833 21.6667 14.5708 21.6667 15.1667C21.6667 15.7625 21.1792 16.25 20.5834 16.25ZM7.58341 21.6667H11.9167V19.5L18.4167 22.75H14.0834V24.9167L7.58341 21.6667Z" fill="#363636"/>
</svg>
