<svg width="20" height="16" viewBox="0 0 20 16" fill="none" xmlns="http://www.w3.org/2000/svg">
<path d="M11 9H10.5V6.25C10.5 6.11188 10.3881 6 10.25 6H9.82563C9.6775 6 9.53281 6.04375 9.40969 6.12594L8.93062 6.44531C8.9033 6.4635 8.87983 6.4869 8.86156 6.51417C8.84328 6.54143 8.83056 6.57203 8.82412 6.60422C8.81768 6.6364 8.81764 6.66954 8.82401 6.70174C8.83038 6.73394 8.84304 6.76457 8.86125 6.79187L9.13875 7.20781C9.15694 7.23513 9.18034 7.2586 9.2076 7.27688C9.23487 7.29515 9.26547 7.30788 9.29765 7.31432C9.32984 7.32076 9.36298 7.3208 9.39518 7.31443C9.42738 7.30806 9.45801 7.2954 9.48531 7.27719L9.5 7.2675V9H9C8.86187 9 8.75 9.11188 8.75 9.25V9.75C8.75 9.88812 8.86187 10 9 10H11C11.1381 10 11.25 9.88812 11.25 9.75V9.25C11.25 9.11188 11.1381 9 11 9ZM19 2H1C0.447812 2 0 2.44781 0 3V13C0 13.5522 0.447812 14 1 14H19C19.5522 14 20 13.5522 20 13V3C20 2.44781 19.5522 2 19 2ZM1.5 12.5V10.5C2.60469 10.5 3.5 11.3953 3.5 12.5H1.5ZM1.5 5.5V3.5H3.5C3.5 4.60469 2.60469 5.5 1.5 5.5ZM10 11.5C8.34313 11.5 7 9.93281 7 8C7 6.06687 8.34313 4.5 10 4.5C11.6569 4.5 13 6.06687 13 8C13 9.93344 11.6562 11.5 10 11.5ZM18.5 12.5H16.5C16.5 11.3953 17.3953 10.5 18.5 10.5V12.5ZM18.5 5.5C17.3953 5.5 16.5 4.60469 16.5 3.5H18.5V5.5Z" fill="#363636"/>
</svg>
