<svg width="13" height="13" viewBox="0 0 13 13" fill="none" xmlns="http://www.w3.org/2000/svg">
<path d="M5.95831 9.20837H7.04165V5.95837H5.95831V9.20837ZM6.49998 4.87504C6.65345 4.87504 6.78219 4.82304 6.88619 4.71904C6.99019 4.61504 7.04201 4.48649 7.04165 4.33337C7.04129 4.18026 6.98929 4.05171 6.88565 3.94771C6.78201 3.84371 6.65345 3.79171 6.49998 3.79171C6.34651 3.79171 6.21795 3.84371 6.11431 3.94771C6.01067 4.05171 5.95867 4.18026 5.95831 4.33337C5.95795 4.48649 6.00995 4.61522 6.11431 4.71958C6.21867 4.82394 6.34723 4.87576 6.49998 4.87504ZM6.49998 11.9167C5.75067 11.9167 5.04651 11.7744 4.38748 11.4899C3.72845 11.2053 3.15519 10.8195 2.66769 10.3323C2.18019 9.84519 1.79434 9.27193 1.51015 8.61254C1.22595 7.95315 1.08367 7.24899 1.08331 6.50004C1.08295 5.7511 1.22523 5.04693 1.51015 4.38754C1.79506 3.72815 2.18091 3.15489 2.66769 2.66775C3.15447 2.18061 3.72773 1.79476 4.38748 1.51021C5.04723 1.22565 5.7514 1.08337 6.49998 1.08337C7.24856 1.08337 7.95273 1.22565 8.61248 1.51021C9.27223 1.79476 9.8455 2.18061 10.3323 2.66775C10.8191 3.15489 11.2051 3.72815 11.4904 4.38754C11.7756 5.04693 11.9177 5.7511 11.9166 6.50004C11.9156 7.24899 11.7733 7.95315 11.4898 8.61254C11.2063 9.27193 10.8205 9.84519 10.3323 10.3323C9.84405 10.8195 9.27079 11.2055 8.61248 11.4904C7.95417 11.7753 7.25001 11.9174 6.49998 11.9167Z" fill="#E8E8E8"/>
</svg>
