<svg width="38" height="38" viewBox="0 0 38 38" fill="none" xmlns="http://www.w3.org/2000/svg">
<path d="M16.2331 2.37499C15.6038 2.37499 15.105 2.87374 15.105 3.49124V7.88499C15.105 8.03931 15.0437 8.18731 14.9346 8.29644C14.8255 8.40556 14.6775 8.46686 14.5231 8.46686C14.3688 8.46686 14.2208 8.40556 14.1117 8.29644C14.0026 8.18731 13.9413 8.03931 13.9413 7.88499V3.53874C13.9413 2.92124 13.4663 2.38686 12.8606 2.37499C12.7111 2.37021 12.5621 2.39556 12.4225 2.44951C12.2829 2.50347 12.1556 2.58493 12.0482 2.68906C11.9407 2.7932 11.8553 2.91787 11.797 3.05568C11.7387 3.19348 11.7087 3.3416 11.7088 3.49124V7.88499C11.7088 8.03931 11.6475 8.18731 11.5383 8.29644C11.4292 8.40556 11.2812 8.46686 11.1269 8.46686C10.9726 8.46686 10.8246 8.40556 10.7154 8.29644C10.6063 8.18731 10.545 8.03931 10.545 7.88499V3.53874C10.545 2.92124 10.07 2.38686 9.46438 2.37499C9.31482 2.37021 9.16583 2.39556 9.02626 2.44951C8.8867 2.50347 8.7594 2.58493 8.65194 2.68906C8.54449 2.7932 8.45906 2.91787 8.40075 3.05568C8.34244 3.19348 8.31243 3.3416 8.31251 3.49124V10.9962C8.31126 11.6939 8.47178 12.3823 8.78146 13.0074C9.09115 13.6326 9.54156 14.1774 10.0973 14.5991C11.1031 15.3354 11.1031 17.7068 11.1031 17.7068V34.0943C11.1031 34.9374 11.7919 35.6262 12.635 35.6262H13.015C13.8581 35.6262 14.5469 34.9374 14.5469 34.0943V17.6937C14.5469 17.6937 14.5469 15.2748 15.5373 14.5979C16.0971 14.1769 16.5513 13.6312 16.8638 13.0042C17.1762 12.3772 17.3384 11.6861 17.3375 10.9856V3.49124C17.34 3.34495 17.3133 3.19964 17.2588 3.06384C17.2044 2.92804 17.1233 2.80451 17.0204 2.7005C16.9175 2.5965 16.7949 2.51412 16.6597 2.45822C16.5245 2.40231 16.3794 2.37402 16.2331 2.37499ZM27.3838 2.37499C28.8563 2.37499 30.0438 3.56249 30.0438 5.03499V21.2444L30.0319 21.2408V34.0824C30.0319 34.9256 29.3431 35.6143 28.5 35.6143H28.12C27.2769 35.6143 26.5881 34.9256 26.5881 34.0824V19.9939C25.6841 19.583 24.9177 18.9202 24.3806 18.085C23.8436 17.2497 23.5587 16.2773 23.56 15.2843V6.19874C23.5481 4.08499 25.27 2.37499 27.3838 2.37499Z" fill="#E9E9E9"/>
</svg>
