<svg width="32" height="32" viewBox="0 0 32 32" fill="none" xmlns="http://www.w3.org/2000/svg">
<path d="M21.7692 24.0769V28.6923C21.7692 29.3043 21.5261 29.8913 21.0933 30.3241C20.6605 30.7569 20.0736 31 19.4615 31H3.30769C2.69565 31 2.10868 30.7569 1.67591 30.3241C1.24313 29.8913 1 29.3043 1 28.6923V3.30769C1 2.69565 1.24313 2.10868 1.67591 1.67591C2.10868 1.24313 2.69565 1 3.30769 1H19.4615C20.0736 1 20.6605 1.24313 21.0933 1.67591C21.5261 2.10868 21.7692 2.69565 21.7692 3.30769V7.92308M14.8462 16H31M31 16L26.3846 11.3846M31 16L26.3846 20.6154" stroke="white" stroke-width="2" stroke-linecap="round" stroke-linejoin="round"/>
</svg>
