<svg width="26" height="27" viewBox="0 0 26 27" fill="none" xmlns="http://www.w3.org/2000/svg">
<path d="M13.0001 7.27084C13.2156 7.27084 13.4222 7.35645 13.5746 7.50882C13.727 7.66119 13.8126 7.86786 13.8126 8.08334V14.5833C13.8126 14.7988 13.727 15.0055 13.5746 15.1579C13.4222 15.3102 13.2156 15.3958 13.0001 15.3958C12.7846 15.3958 12.5779 15.3102 12.4256 15.1579C12.2732 15.0055 12.1876 14.7988 12.1876 14.5833V8.08334C12.1876 7.86786 12.2732 7.66119 12.4256 7.50882C12.5779 7.35645 12.7846 7.27084 13.0001 7.27084ZM13.0001 18.9167C13.2874 18.9167 13.5629 18.8025 13.7661 18.5994C13.9693 18.3962 14.0834 18.1207 14.0834 17.8333C14.0834 17.546 13.9693 17.2705 13.7661 17.0673C13.5629 16.8641 13.2874 16.75 13.0001 16.75C12.7128 16.75 12.4372 16.8641 12.234 17.0673C12.0309 17.2705 11.9167 17.546 11.9167 17.8333C11.9167 18.1207 12.0309 18.3962 12.234 18.5994C12.4372 18.8025 12.7128 18.9167 13.0001 18.9167Z" fill="#363636"/>
<path fill-rule="evenodd" clip-rule="evenodd" d="M1.35425 13.5C1.35425 7.06824 6.56833 1.85416 13.0001 1.85416C19.4318 1.85416 24.6459 7.06824 24.6459 13.5C24.6459 19.9317 19.4318 25.1458 13.0001 25.1458C6.56833 25.1458 1.35425 19.9317 1.35425 13.5ZM13.0001 3.47916C10.3424 3.47916 7.79355 4.53492 5.91428 6.41419C4.03501 8.29346 2.97925 10.8423 2.97925 13.5C2.97925 16.1577 4.03501 18.7065 5.91428 20.5858C7.79355 22.4651 10.3424 23.5208 13.0001 23.5208C15.6578 23.5208 18.2066 22.4651 20.0859 20.5858C21.9651 18.7065 23.0209 16.1577 23.0209 13.5C23.0209 10.8423 21.9651 8.29346 20.0859 6.41419C18.2066 4.53492 15.6578 3.47916 13.0001 3.47916Z" fill="#363636"/>
</svg>
