<svg width="43" height="43" viewBox="0 0 43 43" fill="none" xmlns="http://www.w3.org/2000/svg">
<path d="M31.3542 8.0625C27.8605 8.0625 24.098 8.77917 21.5001 10.75C18.9022 8.77917 15.1397 8.0625 11.6459 8.0625C9.048 8.0625 6.28883 8.45667 3.97758 9.47792C2.66966 10.0692 1.79175 11.3412 1.79175 12.7925V33.0025C1.79175 35.3317 3.97758 37.0517 6.23508 36.4783C7.99091 36.0304 9.85425 35.8333 11.6459 35.8333C14.4409 35.8333 17.4151 36.2992 19.8159 37.4817C20.8909 38.0192 22.1092 38.0192 23.1663 37.4817C25.5672 36.2812 28.5413 35.8333 31.3363 35.8333C33.128 35.8333 34.9913 36.0304 36.7472 36.4783C39.0047 37.0696 41.1905 35.3496 41.1905 33.0025V12.7925C41.1905 11.3412 40.3126 10.0692 39.0047 9.47792C36.7113 8.45667 33.9522 8.0625 31.3542 8.0625ZM37.6251 30.8704C37.6251 31.9992 36.5859 32.8233 35.4751 32.6262C34.1313 32.3754 32.7338 32.2679 31.3542 32.2679C28.3084 32.2679 23.9188 33.4325 21.5001 34.9554V14.3333C23.9188 12.8104 28.3084 11.6458 31.3542 11.6458C33.0026 11.6458 34.633 11.8071 36.1917 12.1475C37.0159 12.3267 37.6251 13.0613 37.6251 13.9033V30.8704Z" fill="#E9E9E9"/>
<path d="M25.0474 19.7263C24.4741 19.7263 23.9545 19.3679 23.7754 18.7946C23.5424 18.0958 23.9366 17.3254 24.6354 17.1104C27.3945 16.2146 30.9599 15.9279 34.2387 16.3042C34.9733 16.3938 35.5108 17.0567 35.4212 17.7913C35.3316 18.5258 34.6687 19.0633 33.9341 18.9738C31.0316 18.6333 27.8604 18.9021 25.4595 19.6725C25.3162 19.6904 25.1729 19.7263 25.0474 19.7263ZM25.0474 24.4921C24.4741 24.4921 23.9545 24.1338 23.7754 23.5604C23.5424 22.8617 23.9366 22.0913 24.6354 21.8763C27.3766 20.9804 30.9599 20.6938 34.2387 21.07C34.9733 21.1596 35.5108 21.8225 35.4212 22.5571C35.3316 23.2917 34.6687 23.8292 33.9341 23.7396C31.0316 23.3992 27.8604 23.6679 25.4595 24.4383C25.3247 24.4722 25.1864 24.4902 25.0474 24.4921ZM25.0474 29.2579C24.4741 29.2579 23.9545 28.8996 23.7754 28.3263C23.5424 27.6275 23.9366 26.8571 24.6354 26.6421C27.3766 25.7463 30.9599 25.4596 34.2387 25.8358C34.9733 25.9254 35.5108 26.5883 35.4212 27.3229C35.3316 28.0575 34.6687 28.5771 33.9341 28.5054C31.0316 28.165 27.8604 28.4338 25.4595 29.2042C25.3247 29.238 25.1864 29.256 25.0474 29.2579Z" fill="#E9E9E9"/>
</svg>
