<svg width="36" height="36" viewBox="0 0 36 36" fill="none" xmlns="http://www.w3.org/2000/svg">
<path d="M18.002 0.5C27.6672 0.5 35.502 8.33475 35.502 18C35.502 27.6652 27.6672 35.5 18.002 35.5C14.9093 35.5053 11.871 34.6869 9.19948 33.1287L0.50898 35.5L2.87498 26.806C1.31566 24.1336 0.49656 21.094 0.50198 18C0.50198 8.33475 8.33673 0.5 18.002 0.5ZM12.038 9.775L11.688 9.789C11.4617 9.80459 11.2406 9.86403 11.037 9.964C10.8472 10.0716 10.674 10.206 10.5225 10.363C10.3125 10.5608 10.1935 10.7323 10.0657 10.8985C9.41844 11.7401 9.06993 12.7733 9.07523 13.835C9.07873 14.6925 9.30273 15.5273 9.65273 16.3077C10.3685 17.8862 11.5462 19.5575 13.1002 21.1062C13.4747 21.479 13.8422 21.8535 14.2377 22.2017C16.1687 23.9017 18.4697 25.1277 20.9577 25.7823L21.9517 25.9345C22.2755 25.952 22.5992 25.9275 22.9247 25.9118C23.4343 25.8849 23.9318 25.7469 24.3825 25.5075C24.6115 25.3891 24.8351 25.2606 25.0527 25.1225C25.0527 25.1225 25.1268 25.0723 25.2715 24.965C25.5077 24.79 25.653 24.6658 25.849 24.461C25.996 24.3093 26.1185 24.1332 26.2165 23.9325C26.353 23.6473 26.4895 23.103 26.5455 22.6497C26.5875 22.3032 26.5752 22.1143 26.57 21.997C26.563 21.8098 26.4072 21.6155 26.2375 21.5333L25.219 21.0765C25.219 21.0765 23.6965 20.4132 22.7655 19.9897C22.668 19.9473 22.5637 19.923 22.4575 19.918C22.3377 19.9055 22.2167 19.9188 22.1026 19.9572C21.9884 19.9955 21.8839 20.058 21.796 20.1402C21.7872 20.1367 21.67 20.2365 20.4047 21.7695C20.3321 21.8671 20.2321 21.9408 20.1174 21.9813C20.0027 22.0219 19.8785 22.0273 19.7607 21.997C19.6467 21.9666 19.535 21.928 19.4265 21.8815C19.2095 21.7905 19.1342 21.7555 18.9855 21.6925C17.9808 21.2548 17.0508 20.6626 16.2292 19.9373C16.0087 19.7448 15.804 19.5347 15.594 19.3317C14.9056 18.6724 14.3055 17.9265 13.809 17.1128L13.7057 16.9465C13.6327 16.8341 13.5728 16.7138 13.5272 16.5877C13.4607 16.3305 13.634 16.124 13.634 16.124C13.634 16.124 14.0592 15.6585 14.257 15.4065C14.4495 15.1615 14.6122 14.9235 14.7172 14.7538C14.9237 14.4213 14.9885 14.08 14.88 13.8158C14.39 12.6188 13.8836 11.4282 13.361 10.244C13.2577 10.0095 12.9515 9.8415 12.6732 9.80825C12.5787 9.79658 12.4842 9.78725 12.3897 9.78025C12.1548 9.76677 11.9191 9.76911 11.6845 9.78725L12.038 9.775Z" fill="#006A05"/>
</svg>
