<svg width="22" height="21" viewBox="0 0 22 21" fill="none" xmlns="http://www.w3.org/2000/svg">
<path d="M11.0458 0C16.8729 0 21.5963 4.51928 21.5963 10.0944C21.5963 15.6696 16.8729 20.1889 11.0458 20.1889C9.18131 20.192 7.34957 19.7198 5.73896 18.8211L0.499598 20.1889L1.92602 15.174C0.98593 13.6325 0.49211 11.8792 0.495377 10.0944C0.495377 4.51928 5.21882 0 11.0458 0ZM7.45024 5.35005L7.23923 5.35813C7.1028 5.36712 6.96951 5.40141 6.84675 5.45907C6.73236 5.52116 6.6279 5.59868 6.53657 5.68923C6.40996 5.80329 6.33822 5.90222 6.2612 5.99812C5.87096 6.48356 5.66085 7.07955 5.66405 7.69196C5.66616 8.18659 5.8012 8.66809 6.01221 9.11831C6.44373 10.0288 7.15377 10.9928 8.09065 11.8862C8.31643 12.1012 8.53799 12.3172 8.77643 12.5181C9.9406 13.4987 11.3278 14.2059 12.8278 14.5834L13.4271 14.6713C13.6223 14.6814 13.8174 14.6672 14.0137 14.6581C14.3209 14.6426 14.6209 14.563 14.8925 14.425C15.0306 14.3567 15.1654 14.2826 15.2966 14.2029C15.2966 14.2029 15.3413 14.1739 15.4285 14.112C15.5709 14.0111 15.6585 13.9394 15.7767 13.8213C15.8653 13.7338 15.9391 13.6322 15.9982 13.5165C16.0805 13.3519 16.1628 13.038 16.1966 12.7765C16.2219 12.5767 16.2145 12.4676 16.2113 12.4C16.2071 12.292 16.1132 12.1799 16.0109 12.1325L15.3968 11.869C15.3968 11.869 14.479 11.4865 13.9177 11.2422C13.8589 11.2177 13.796 11.2037 13.732 11.2008C13.6598 11.1936 13.5868 11.2013 13.518 11.2234C13.4492 11.2455 13.3862 11.2815 13.3332 11.329C13.3279 11.327 13.2572 11.3845 12.4944 12.2688C12.4506 12.3251 12.3903 12.3676 12.3212 12.391C12.252 12.4144 12.1772 12.4175 12.1062 12.4C12.0374 12.3825 11.97 12.3602 11.9046 12.3334C11.7738 12.2809 11.7285 12.2607 11.6388 12.2244C11.033 11.9719 10.4724 11.6303 9.97707 11.2119C9.84414 11.1009 9.7207 10.9797 9.59409 10.8626C9.17905 10.4823 8.81732 10.052 8.51795 9.58265L8.4557 9.48675C8.41166 9.42194 8.37556 9.35251 8.34808 9.27982C8.30799 9.13143 8.41244 9.01232 8.41244 9.01232C8.41244 9.01232 8.66882 8.7438 8.78804 8.59844C8.90409 8.45712 9.00221 8.31984 9.06551 8.22192C9.19001 8.03013 9.22905 7.83328 9.16363 7.68086C8.86822 6.9904 8.56296 6.30364 8.24785 5.62058C8.18561 5.48532 8.00097 5.38841 7.83322 5.36923C7.77625 5.3625 7.71928 5.35712 7.6623 5.35308C7.52064 5.34531 7.37859 5.34666 7.23712 5.35712L7.45024 5.35005Z" fill="#005E04"/>
</svg>
